<svg width="256" height="69" viewBox="0 0 256 69" fill="none" xmlns="http://www.w3.org/2000/svg">
<path d="M31.3636 0.636362H45.5795V34.1818C45.5795 38.1705 44.625 41.6222 42.7159 44.5369C40.8239 47.4347 38.1818 49.6761 34.7898 51.2614C31.3977 52.8295 27.4602 53.6136 22.9773 53.6136C18.4602 53.6136 14.5057 52.8295 11.1136 51.2614C7.72159 49.6761 5.07955 47.4347 3.1875 44.5369C1.3125 41.6222 0.375 38.1705 0.375 34.1818V0.636362H14.5909V32.9545C14.5909 34.5739 14.9489 36.0227 15.6648 37.3011C16.3807 38.5625 17.3693 39.5511 18.6307 40.267C19.9091 40.983 21.358 41.3409 22.9773 41.3409C24.6136 41.3409 26.0625 40.983 27.3239 40.267C28.5852 39.5511 29.5739 38.5625 30.2898 37.3011C31.0057 36.0227 31.3636 34.5739 31.3636 32.9545V0.636362ZM52.5405 53V13.7273H66.245V21.1932H66.6541C67.37 18.4318 68.5036 16.4119 70.0547 15.1335C71.6229 13.8551 73.4553 13.2159 75.5518 13.2159C76.1655 13.2159 76.7706 13.267 77.3672 13.3693C77.9808 13.4545 78.5689 13.5824 79.1314 13.7528V25.7955C78.4325 25.5568 77.5717 25.3778 76.549 25.2585C75.5263 25.1392 74.6484 25.0795 73.9155 25.0795C72.5348 25.0795 71.2905 25.3949 70.1825 26.0256C69.0916 26.6392 68.2308 27.5085 67.6001 28.6335C66.9695 29.7415 66.6541 31.0455 66.6541 32.5455V53H52.5405ZM83.5547 53V0.636362H97.7706V41.5455H118.941V53H83.5547ZM143.812 53.7159C139.551 53.7159 135.903 52.8722 132.869 51.1847C129.835 49.4801 127.509 47.1108 125.889 44.0767C124.27 41.0256 123.46 37.4886 123.46 33.4659C123.46 29.4432 124.27 25.9148 125.889 22.8807C127.509 19.8295 129.835 17.4602 132.869 15.7727C135.903 14.0682 139.551 13.2159 143.812 13.2159C148.074 13.2159 151.722 14.0682 154.756 15.7727C157.79 17.4602 160.116 19.8295 161.736 22.8807C163.355 25.9148 164.165 29.4432 164.165 33.4659C164.165 37.4886 163.355 41.0256 161.736 44.0767C160.116 47.1108 157.79 49.4801 154.756 51.1847C151.722 52.8722 148.074 53.7159 143.812 53.7159ZM143.915 43.2841C145.108 43.2841 146.139 42.8835 147.009 42.0824C147.878 41.2812 148.551 40.1392 149.028 38.6562C149.506 37.1733 149.744 35.4091 149.744 33.3636C149.744 31.3011 149.506 29.5369 149.028 28.071C148.551 26.5881 147.878 25.446 147.009 24.6449C146.139 23.8437 145.108 23.4432 143.915 23.4432C142.653 23.4432 141.571 23.8437 140.668 24.6449C139.764 25.446 139.074 26.5881 138.597 28.071C138.119 29.5369 137.881 31.3011 137.881 33.3636C137.881 35.4091 138.119 37.1733 138.597 38.6562C139.074 40.1392 139.764 41.2812 140.668 42.0824C141.571 42.8835 142.653 43.2841 143.915 43.2841ZM188.812 68.5455C184.875 68.5455 181.5 67.983 178.688 66.858C175.892 65.75 173.719 64.2159 172.168 62.2557C170.634 60.3125 169.773 58.0795 169.585 55.5568H183.188C183.324 56.392 183.665 57.0653 184.21 57.5767C184.756 58.0881 185.455 58.4545 186.307 58.6761C187.176 58.9148 188.148 59.0341 189.222 59.0341C191.045 59.0341 192.554 58.5909 193.747 57.7045C194.957 56.8182 195.562 55.2159 195.562 52.8977V46.25H195.153C194.642 47.5795 193.858 48.7131 192.801 49.6506C191.744 50.571 190.474 51.2784 188.991 51.7727C187.509 52.25 185.881 52.4886 184.108 52.4886C181.312 52.4886 178.739 51.8409 176.386 50.5455C174.051 49.25 172.176 47.196 170.761 44.3835C169.364 41.571 168.665 37.8977 168.665 33.3636C168.665 28.625 169.398 24.7727 170.864 21.8068C172.347 18.8409 174.256 16.6676 176.591 15.2869C178.943 13.9062 181.415 13.2159 184.006 13.2159C185.949 13.2159 187.653 13.5568 189.119 14.2386C190.585 14.9034 191.813 15.7983 192.801 16.9233C193.79 18.0312 194.54 19.25 195.051 20.5795H195.358V13.7273H209.472V52.8977C209.472 56.2216 208.611 59.0426 206.889 61.3608C205.185 63.696 202.781 65.4773 199.679 66.7045C196.577 67.9318 192.955 68.5455 188.812 68.5455ZM189.324 42.4659C190.619 42.4659 191.727 42.108 192.648 41.392C193.585 40.6591 194.301 39.6193 194.795 38.2727C195.307 36.9091 195.562 35.2727 195.562 33.3636C195.562 31.4205 195.307 29.7585 194.795 28.3778C194.301 26.9801 193.585 25.9148 192.648 25.1818C191.727 24.4318 190.619 24.0568 189.324 24.0568C188.028 24.0568 186.92 24.4318 186 25.1818C185.097 25.9148 184.398 26.9801 183.903 28.3778C183.426 29.7585 183.188 31.4205 183.188 33.3636C183.188 35.3068 183.426 36.9602 183.903 38.3239C184.398 39.6705 185.097 40.7017 186 41.4176C186.92 42.1165 188.028 42.4659 189.324 42.4659ZM235.57 53.7159C231.309 53.7159 227.661 52.8722 224.627 51.1847C221.593 49.4801 219.266 47.1108 217.647 44.0767C216.028 41.0256 215.218 37.4886 215.218 33.4659C215.218 29.4432 216.028 25.9148 217.647 22.8807C219.266 19.8295 221.593 17.4602 224.627 15.7727C227.661 14.0682 231.309 13.2159 235.57 13.2159C239.832 13.2159 243.479 14.0682 246.513 15.7727C249.548 17.4602 251.874 19.8295 253.494 22.8807C255.113 25.9148 255.923 29.4432 255.923 33.4659C255.923 37.4886 255.113 41.0256 253.494 44.0767C251.874 47.1108 249.548 49.4801 246.513 51.1847C243.479 52.8722 239.832 53.7159 235.57 53.7159ZM235.673 43.2841C236.866 43.2841 237.897 42.8835 238.766 42.0824C239.636 41.2812 240.309 40.1392 240.786 38.6562C241.263 37.1733 241.502 35.4091 241.502 33.3636C241.502 31.3011 241.263 29.5369 240.786 28.071C240.309 26.5881 239.636 25.446 238.766 24.6449C237.897 23.8437 236.866 23.4432 235.673 23.4432C234.411 23.4432 233.329 23.8437 232.425 24.6449C231.522 25.446 230.832 26.5881 230.354 28.071C229.877 29.5369 229.638 31.3011 229.638 33.3636C229.638 35.4091 229.877 37.1733 230.354 38.6562C230.832 40.1392 231.522 41.2812 232.425 42.0824C233.329 42.8835 234.411 43.2841 235.673 43.2841Z" fill="white"/>
</svg>
